<?xml version="1.0" encoding="utf-8"?><svg xmlns="http://www.w3.org/2000/svg" xmlns:xlink="http://www.w3.org/1999/xlink" width="1920" height="1008" preserveAspectRatio="xMidYMid" viewBox="0 0 1920 1008" style="z-index:1;margin-right:-2px;display:block;background-repeat-y:initial;background-repeat-x:initial;background-color:rgb(255, 255, 255);animation-play-state:paused" ><g transform="translate(960,504) scale(1,1) translate(-960,-504)" style="transform:matrix(1, 0, 0, 1, 0, 0);animation-play-state:paused" ><linearGradient id="lg-0.24534191326938792" x1="0" x2="1" y1="0" y2="0" style="animation-play-state:paused" ><stop stop-color="#ee7999" offset="0" style="animation-play-state:paused" ></stop>

  
<stop stop-color="#65c2c5" offset="1" style="animation-play-state:paused" ></stop></linearGradient>
<path d="M 0 0 L 0 930.728 Q 320 860.372 640 837.874 T 1280 734.774 T 1920 590.411 L 1920 0 Z" fill="url(#lg-0.24534191326938792)" opacity="0.4" style="opacity:0.4;animation-play-state:paused" ></path>
<path d="M 0 0 L 0 927.422 Q 320 904.189 640 871.148 T 1280 753.023 T 1920 607.102 L 1920 0 Z" fill="url(#lg-0.24534191326938792)" opacity="0.4" style="opacity:0.4;animation-play-state:paused" ></path>
<path d="M 0 0 L 0 973.912 Q 320 864.917 640 818.512 T 1280 691.17 T 1920 612.256 L 1920 0 Z" fill="url(#lg-0.24534191326938792)" opacity="0.4" style="opacity:0.4;animation-play-state:paused" ></path>
<path d="M 0 0 L 0 949.462 Q 320 870.419 640 855.432 T 1280 701.74 T 1920 612.556 L 1920 0 Z" fill="url(#lg-0.24534191326938792)" opacity="0.4" style="opacity:0.4;animation-play-state:paused" ></path>
<path d="M 0 0 L 0 921.1 Q 320 889.801 640 867.189 T 1280 714.254 T 1920 628.426 L 1920 0 Z" fill="url(#lg-0.24534191326938792)" opacity="0.4" style="opacity:0.4;animation-play-state:paused" ></path>
<path d="M 0 0 L 0 961.611 Q 320 859.582 640 832.311 T 1280 749.399 T 1920 622.508 L 1920 0 Z" fill="url(#lg-0.24534191326938792)" opacity="0.4" style="opacity:0.4;animation-play-state:paused" ></path></g></svg>