<?xml version="1.0" encoding="utf-8"?><svg xmlns="http://www.w3.org/2000/svg" xmlns:xlink="http://www.w3.org/1999/xlink" width="1920" height="979" preserveAspectRatio="xMidYMid" viewBox="0 0 1920 979" style="z-index:1;margin-right:-2px;display:block;background-repeat-y:initial;background-repeat-x:initial;background-color:rgb(255, 255, 255);animation-play-state:paused" ><g transform="translate(960,489.5) scale(1,-1) translate(-960,-489.5)" style="transform:matrix(1, 0, 0, -1, 0, 979);animation-play-state:paused" ><linearGradient id="lg-0.2905469335048674" x1="0" x2="1" y1="0" y2="0" style="animation-play-state:paused" ><stop stop-color="#65c2c5" offset="0" style="animation-play-state:paused" ></stop>

  
<stop stop-color="#ee7999" offset="1" style="animation-play-state:paused" ></stop></linearGradient>
<path d="M 0 0 L 0 432.067 Q 320 371.396 640 344.126 T 1280 212.2 T 1920 -70.8259 L 1920 0 Z" fill="url(#lg-0.2905469335048674)" opacity="0.41000000000000003" style="opacity:0.41;animation-play-state:paused" ></path>
<path d="M 0 0 L 0 490.934 Q 320 346.585 640 325.063 T 1280 171.988 T 1920 30.2108 L 1920 0 Z" fill="url(#lg-0.2905469335048674)" opacity="0.41000000000000003" style="opacity:0.41;animation-play-state:paused" ></path>
<path d="M 0 0 L 0 520.914 Q 320 268.246 640 254.436 T 1280 102.948 T 1920 11.5376 L 1920 0 Z" fill="url(#lg-0.2905469335048674)" opacity="0.41000000000000003" style="opacity:0.41;animation-play-state:paused" ></path>
<path d="M 0 0 L 0 465.914 Q 320 360.573 640 323.882 T 1280 246.86 T 1920 -12.7749 L 1920 0 Z" fill="url(#lg-0.2905469335048674)" opacity="0.41000000000000003" style="opacity:0.41;animation-play-state:paused" ></path>
<path d="M 0 0 L 0 587.48 Q 320 355.268 640 309.654 T 1280 181.45 T 1920 -107.826 L 1920 0 Z" fill="url(#lg-0.2905469335048674)" opacity="0.41000000000000003" style="opacity:0.41;animation-play-state:paused" ></path>
<path d="M 0 0 L 0 606.932 Q 320 377.25 640 348.142 T 1280 102.175 T 1920 -16.3856 L 1920 0 Z" fill="url(#lg-0.2905469335048674)" opacity="0.41000000000000003" style="opacity:0.41;animation-play-state:paused" ></path></g></svg>